<?xml version="1.0" encoding="utf-8"?>
<!-- Generator: Adobe Illustrator 17.0.0, SVG Export Plug-In . SVG Version: 6.00 Build 0)  -->
<!DOCTYPE svg PUBLIC "-//W3C//DTD SVG 1.1//EN" "http://www.w3.org/Graphics/SVG/1.1/DTD/svg11.dtd">
<svg version="1.1" id="Capa_1" xmlns="http://www.w3.org/2000/svg" xmlns:xlink="http://www.w3.org/1999/xlink" x="0px" y="0px"
	 width="595.279px" height="423.195px" viewBox="123.305 86.033 595.279 423.195"
	 enable-background="new 123.305 86.033 595.279 423.195" xml:space="preserve">
<g>
	<g>
		<path d="M605.276,412.888c-2.361,0-4.722-0.864-6.564-2.611L488.262,306.662c-3.858-3.608-4.05-9.693-0.422-13.552
			c3.628-3.896,9.674-4.069,13.57-0.422L611.86,396.303c3.858,3.608,4.05,9.693,0.422,13.552
			C610.381,411.871,607.848,412.888,605.276,412.888z"/>
		<path d="M236.595,412.888c-2.554,0-5.106-1.018-7.007-3.033c-3.628-3.858-3.436-9.943,0.423-13.552l110.487-103.615
			c3.877-3.609,9.962-3.455,13.57,0.422c3.628,3.858,3.436,9.943-0.422,13.552L243.159,410.277
			C241.317,412.024,238.955,412.888,236.595,412.888z"/>
	</g>
	<path d="M670.597,509.228H171.292c-26.45,0-47.987-21.518-47.987-47.987V134.02c0-26.47,21.537-47.987,47.987-47.987h499.305
		c26.451,0,47.987,21.518,47.987,47.987v327.221C718.584,487.711,697.048,509.228,670.597,509.228z M171.292,105.228
		c-15.874,0-28.792,12.918-28.792,28.792v327.221c0,15.874,12.918,28.793,28.792,28.793h499.305
		c15.874,0,28.793-12.919,28.793-28.793V134.02c0-15.874-12.919-28.792-28.793-28.792H171.292z"/>
	<path d="M420.945,345.859c-12.765,0-25.529-4.242-35.242-12.708L139.237,118.146c-3.992-3.475-4.415-9.54-0.94-13.552
		c3.513-3.992,9.56-4.357,13.552-0.922l246.466,214.986c12.266,10.691,32.996,10.691,45.243,0l246.158-214.641
		c3.974-3.474,10.019-3.09,13.552,0.922c3.475,4.012,3.071,10.058-0.921,13.552L456.187,333.133
		C446.455,341.617,433.709,345.859,420.945,345.859z"/>
</g>
</svg>
