<?xml version="1.0" encoding="utf-8"?>
<!-- Generator: Adobe Illustrator 17.0.0, SVG Export Plug-In . SVG Version: 6.00 Build 0)  -->
<!DOCTYPE svg PUBLIC "-//W3C//DTD SVG 1.1//EN" "http://www.w3.org/Graphics/SVG/1.1/DTD/svg11.dtd">
<svg version="1.1" id="Capa_1" xmlns="http://www.w3.org/2000/svg" xmlns:xlink="http://www.w3.org/1999/xlink" x="0px" y="0px"
	 width="841.889px" height="595.281px" viewBox="0 0 841.889 595.281" enable-background="new 0 0 841.889 595.281"
	 xml:space="preserve">
<g>
	<path d="M601.735,595.281c-24.767,0-54.68-6.207-87.576-18.621c-72.12-27.19-150.587-80.93-220.945-151.288
		c-70.378-70.378-124.117-148.865-151.328-220.985c-24.728-65.572-24.787-119.393-0.14-144.02
		c3.544-3.544,7.147-7.348,10.872-11.272c22.484-23.646,47.893-50.256,81.57-49.055c23.206,0.961,45.69,15.377,68.716,44.029
		c68.036,84.613,37.361,114.768,1.862,149.726l-6.267,6.207c-5.807,5.807-16.779,32.696,85.294,134.77
		c33.317,33.317,61.728,57.704,84.434,72.461c14.296,9.29,39.864,23.346,50.356,12.854l6.307-6.366
		c34.919-35.42,65.072-65.993,149.626,1.981c28.651,23.026,43.048,45.491,44.009,68.736c1.382,33.657-25.429,59.126-49.095,81.591
		c-3.904,3.724-7.708,7.328-11.252,10.852C645.945,589.134,626.382,595.281,601.735,595.281z M231.785,20.022
		c-23.927,0-45.531,22.745-64.652,42.867c-3.844,4.045-7.568,7.969-11.232,11.633c-18.36,18.341-16.498,66.534,4.725,122.816
		c26.229,69.518,78.347,145.482,146.763,213.897c68.395,68.376,144.319,120.494,213.857,146.703
		c56.282,21.264,104.476,23.065,122.796,4.745c3.664-3.664,7.588-7.388,11.633-11.213c20.563-19.541,43.889-41.686,42.867-66.253
		c-0.7-16.879-12.994-35.039-36.54-53.96c-70.459-56.663-90.16-36.661-122.837-3.523l-6.407,6.467
		c-15.617,15.638-40.985,12.174-75.423-10.212c-23.887-15.537-53.399-40.805-87.678-75.103
		c-84.714-84.694-111.804-136.532-85.294-163.102l6.387-6.307c33.217-32.677,53.259-52.398-3.424-122.896
		c-18.961-23.526-37.101-35.819-53.98-36.54C232.826,20.022,232.306,20.022,231.785,20.022z"/>
</g>
</svg>
