<?xml version="1.0" encoding="utf-8"?>
<!-- Generator: Adobe Illustrator 17.0.0, SVG Export Plug-In . SVG Version: 6.00 Build 0)  -->
<!DOCTYPE svg PUBLIC "-//W3C//DTD SVG 1.1//EN" "http://www.w3.org/Graphics/SVG/1.1/DTD/svg11.dtd">
<svg version="1.1" id="Capa_1" xmlns="http://www.w3.org/2000/svg" xmlns:xlink="http://www.w3.org/1999/xlink" x="0px" y="0px"
	 width="595.148px" height="595.281px" viewBox="123.37 0 595.148 595.281" enable-background="new 123.37 0 595.148 595.281"
	 xml:space="preserve">
<g>
	<path d="M713.371,564.923L568.709,420.26c38.805-44.613,62.299-102.821,62.299-166.441C631.008,113.776,517.1,0,377.19,0
		C237.147,0,123.37,113.908,123.37,253.819S237.28,507.638,377.19,507.638c63.619,0,121.828-23.494,166.44-62.3l144.663,144.662
		c3.432,3.432,8.051,5.28,12.539,5.28c4.487,0,9.107-1.717,12.539-5.28C720.235,583.137,720.235,571.786,713.371,564.923z
		 M158.876,253.819c0-120.376,97.937-218.182,218.182-218.182c120.376,0,218.181,97.938,218.181,218.182
		s-97.805,218.314-218.181,218.314C256.814,472.133,158.876,374.195,158.876,253.819z"/>
</g>
</svg>
