<?xml version="1.0" encoding="utf-8"?>
<!-- Generator: Adobe Illustrator 17.0.0, SVG Export Plug-In . SVG Version: 6.00 Build 0)  -->
<!DOCTYPE svg PUBLIC "-//W3C//DTD SVG 1.1//EN" "http://www.w3.org/Graphics/SVG/1.1/DTD/svg11.dtd">
<svg version="1.1" id="Capa_1" xmlns="http://www.w3.org/2000/svg" xmlns:xlink="http://www.w3.org/1999/xlink" x="0px" y="0px"
	 width="416.925px" height="595.281px" viewBox="212.477 0 416.925 595.281" enable-background="new 212.477 0 416.925 595.281"
	 xml:space="preserve">
<g>
	<path d="M422.885,130.456c-41.952,0-76.099,34.146-76.099,76.099c0,41.953,34.146,76.1,76.099,76.1c41.952,0,76.1-34.146,76.1-76.1
		C498.985,164.602,464.837,130.456,422.885,130.456z M422.885,260.912c-29.972,0-54.356-24.385-54.356-54.357
		c0-29.972,24.385-54.356,54.356-54.356c29.973,0,54.357,24.385,54.357,54.356C477.241,236.527,452.858,260.912,422.885,260.912z"/>
	<path d="M568.376,61.064C529,21.688,476.644,0,420.961,0c-55.693,0-108.039,21.688-147.415,61.064
		c-72.87,72.859-81.926,209.946-19.612,293.004l167.027,241.213l166.776-240.876C650.302,271.01,641.246,133.924,568.376,61.064z
		 M570.105,341.696L420.961,557.079l-149.383-215.72c-56.519-75.36-48.421-199.162,17.351-264.923
		c35.267-35.267,82.154-54.693,132.032-54.693c49.877,0,96.766,19.427,132.043,54.693
		C618.776,142.197,626.874,265.999,570.105,341.696z"/>
</g>
</svg>
