<?xml version="1.0" encoding="utf-8"?>
<!-- Generator: Adobe Illustrator 17.0.0, SVG Export Plug-In . SVG Version: 6.00 Build 0)  -->
<!DOCTYPE svg PUBLIC "-//W3C//DTD SVG 1.1//EN" "http://www.w3.org/Graphics/SVG/1.1/DTD/svg11.dtd">
<svg version="1.1" id="图层_1" xmlns="http://www.w3.org/2000/svg" xmlns:xlink="http://www.w3.org/1999/xlink" x="0px" y="0px"
	 width="223.487px" height="157.407px" viewBox="-16.36 21.296 223.487 157.407"
	 enable-background="new -16.36 21.296 223.487 157.407" xml:space="preserve">
<g>
	<defs>
		<rect id="SVGID_1_" x="-44.5" y="21.296" width="280" height="157.407"/>
	</defs>
	<clipPath id="SVGID_2_">
		<use xlink:href="#SVGID_1_"  overflow="visible"/>
	</clipPath>
	<path clip-path="url(#SVGID_2_)" d="M173.802,19.945h-42.647l18.41-17.537c2.797-2.844,2.797-7.347,0-9.953
		c-1.398-1.422-3.263-2.133-5.36-2.133c-1.864,0-3.729,0.711-5.36,2.133l-28.897,27.491H81.751L52.853-7.545
		c-1.398-1.422-3.263-2.133-5.36-2.133c-1.864,0-3.729,0.711-5.36,2.133c-2.797,2.844-2.797,7.347,0,9.953l18.41,17.537H17.198
		c-18.643,0-33.558,17.063-33.558,38.392v83.183c0,21.329,14.915,38.392,33.558,38.392h10.487c0,6.399,5.593,11.849,12.351,11.849
		s12.351-5.214,12.351-11.849h86.925c0,6.399,5.593,11.849,12.351,11.849c6.758,0,12.351-5.214,12.351-11.849h9.555
		c18.643,0,33.558-17.3,33.558-38.392V58.338C207.36,37.009,192.445,19.945,173.802,19.945z M141.409,106.683l-67.116,39.814
		c-5.593,3.318-10.254,0.711-10.254-6.162V60.47c0-6.636,4.661-9.48,10.254-6.162l67.116,40.051
		C147.002,97.914,147.002,103.128,141.409,106.683z"/>
</g>
</svg>
